<svg width="235" height="235" viewBox="0 0 235 235" fill="none" xmlns="http://www.w3.org/2000/svg">
<g clip-path="url(#clip0_43_10)">
<path d="M193.773 174.969C181.678 191.021 164.827 202.848 145.62 208.766C126.412 214.684 105.828 214.391 86.7962 207.93C67.7648 201.468 51.2572 189.167 39.6239 172.777C27.9905 156.388 21.8245 136.746 22.0038 116.648C22.1831 96.5506 28.6985 77.0218 40.6223 60.8425C52.5462 44.6632 69.2706 32.6583 88.4142 26.537C107.558 20.4158 128.145 20.4903 147.243 26.7499C166.342 33.0095 182.979 45.1352 194.786 61.4004L168.238 80.6706C160.487 69.9925 149.565 62.032 137.027 57.9226C124.488 53.8131 110.973 53.7642 98.4051 57.7828C85.8374 61.8014 74.8578 69.6827 67.0298 80.3043C59.2018 90.926 54.9244 103.747 54.8067 116.941C54.6891 130.135 58.737 143.03 66.3743 153.789C74.0116 164.549 84.8489 172.625 97.3429 176.867C109.837 181.109 123.351 181.301 135.961 177.416C148.57 173.531 159.633 165.767 167.573 155.229L193.773 174.969Z" fill="#76ADED"/>
<circle cx="118" cy="117" r="32" fill="#76ADED"/>
</g>
<defs>
<clipPath id="clip0_43_10">
<rect width="235" height="235" fill="white"/>
</clipPath>
</defs>
</svg>
